<svg width="328" height="81" viewBox="0 0 328 81" fill="none" xmlns="http://www.w3.org/2000/svg">
<path d="M173.73 66.92C174.012 66.9258 174.293 66.8737 174.554 66.7671C174.815 66.6605 175.052 66.5015 175.25 66.3C175.663 65.8928 175.912 65.3484 175.95 64.77V20.5C175.953 20.2169 175.899 19.9361 175.792 19.6741C175.685 19.412 175.526 19.1739 175.326 18.9738C175.126 18.7736 174.888 18.6153 174.626 18.5082C174.364 18.4011 174.083 18.3473 173.8 18.35C173.21 18.3302 172.636 18.5419 172.2 18.94C171.99 19.1396 171.825 19.3824 171.718 19.6518C171.611 19.9212 171.564 20.2106 171.58 20.5V64.74C171.565 65.0267 171.609 65.3135 171.711 65.582C171.812 65.8506 171.969 66.0951 172.17 66.3C172.374 66.5046 172.617 66.6652 172.886 66.7718C173.154 66.8785 173.441 66.9289 173.73 66.92Z" fill="#010101"/>
<path d="M209.95 66.33C210.153 66.1392 210.314 65.9081 210.422 65.6515C210.531 65.395 210.584 65.1185 210.58 64.84V22.3H224.94C225.485 22.3218 226.017 22.1359 226.43 21.78C226.627 21.6016 226.782 21.3817 226.884 21.1362C226.986 20.8906 227.033 20.6256 227.02 20.36C227.03 20.0903 226.982 19.8217 226.88 19.5718C226.779 19.3218 226.625 19.0963 226.43 18.91C226.027 18.5341 225.491 18.3328 224.94 18.35H191.94C191.389 18.3328 190.853 18.5341 190.45 18.91C190.26 19.0852 190.109 19.2989 190.007 19.5367C189.905 19.7746 189.855 20.0313 189.86 20.29C189.85 20.5612 189.898 20.8313 189.999 21.0829C190.101 21.3345 190.254 21.5618 190.45 21.75C190.854 22.1232 191.39 22.321 191.94 22.3H206.29V64.84C206.28 65.1156 206.328 65.3903 206.429 65.6467C206.531 65.9031 206.684 66.1357 206.88 66.33C207.302 66.7109 207.851 66.9217 208.42 66.9217C208.989 66.9217 209.537 66.7109 209.96 66.33H209.95Z" fill="#010101"/>
<path d="M247.35 19.46C247.175 19.0629 246.899 18.7182 246.55 18.46C246.199 18.2054 245.774 18.072 245.34 18.08C244.896 18.0606 244.457 18.1842 244.088 18.4326C243.719 18.6809 243.439 19.041 243.29 19.46L224.94 64.28C224.883 64.4849 224.86 64.6976 224.87 64.91V65.12C224.887 65.6093 225.083 66.0754 225.42 66.43C225.619 66.6041 225.85 66.737 226.101 66.8212C226.352 66.9053 226.616 66.9389 226.88 66.92C227.301 66.9254 227.712 66.7922 228.05 66.5411C228.388 66.2899 228.634 65.9347 228.75 65.53L233.89 52.83H256.44L261.64 65.53C261.813 65.9286 262.089 66.2738 262.44 66.53C262.791 66.7846 263.216 66.9179 263.65 66.91C264.189 66.9179 264.71 66.7214 265.11 66.36C265.316 66.1783 265.48 65.9532 265.589 65.7007C265.698 65.4483 265.749 65.1748 265.74 64.9C265.723 64.6191 265.676 64.3408 265.6 64.07L247.35 19.46ZM235.48 48.74L245.06 25.01L254.77 48.74H235.48Z" fill="#010101"/>
<path d="M326.85 15.02C326.455 14.6427 325.984 14.3542 325.468 14.1736C324.952 13.993 324.404 13.9246 323.86 13.9729C323.315 14.0212 322.788 14.185 322.312 14.4536C321.836 14.7221 321.423 15.0891 321.1 15.53L303.57 41.61L286.21 15.61C285.835 15.0515 285.302 14.6166 284.68 14.36C283.968 14.0034 283.161 13.8839 282.377 14.0188C281.592 14.1538 280.872 14.5361 280.32 15.11C279.667 15.8052 279.309 16.7263 279.32 17.68V63.22C279.304 64.1835 279.663 65.1156 280.32 65.82C280.658 66.1766 281.066 66.4587 281.519 66.6482C281.972 66.8376 282.459 66.9302 282.95 66.92C283.439 66.9295 283.925 66.8403 284.379 66.6579C284.832 66.4754 285.245 66.2034 285.591 65.858C285.937 65.5127 286.21 65.1011 286.394 64.6478C286.578 64.1946 286.668 63.709 286.66 63.22V29.16L300.51 50.27L300.62 50.41C300.943 50.8421 301.361 51.1947 301.841 51.4408C302.321 51.6869 302.851 51.82 303.39 51.83H303.48C304.053 51.8536 304.623 51.7311 305.135 51.474C305.648 51.2168 306.087 50.8335 306.41 50.36L320.29 29.28V63.22C320.282 63.7192 320.379 64.2144 320.574 64.6741C320.768 65.1339 321.056 65.548 321.42 65.89C322.165 66.5594 323.139 66.9174 324.14 66.89C325.116 66.907 326.061 66.5491 326.78 65.89C327.144 65.5484 327.433 65.1343 327.627 64.6745C327.822 64.2147 327.918 63.7192 327.91 63.22V17.65C327.918 17.1631 327.828 16.6795 327.646 16.2279C327.464 15.7762 327.193 15.3655 326.85 15.02Z" fill="#010101"/>
<path d="M151.79 63.2V17.64C151.808 16.6731 151.45 15.7369 150.79 15.03C150.449 14.6759 150.038 14.3962 149.584 14.2086C149.13 14.021 148.641 13.9296 148.15 13.94C147.661 13.9304 147.176 14.0193 146.722 14.2014C146.268 14.3835 145.856 14.6551 145.51 15C145.167 15.3477 144.896 15.7602 144.714 16.2134C144.532 16.6667 144.443 17.1516 144.45 17.64V51.74L130.6 30.59L130.5 30.45C130.175 30.0195 129.758 29.6681 129.278 29.4222C128.798 29.1763 128.269 29.0422 127.73 29.03H127.64C127.067 29.0014 126.497 29.1207 125.984 29.3764C125.471 29.6321 125.032 30.0156 124.71 30.49L110.78 51.58V17.64C110.788 17.1408 110.692 16.6453 110.497 16.1855C110.303 15.7257 110.014 15.3116 109.65 14.97C108.912 14.2957 107.939 13.9368 106.94 13.97C105.963 13.9478 105.017 14.3064 104.3 14.97C103.936 15.3116 103.647 15.7257 103.453 16.1855C103.258 16.6453 103.162 17.1408 103.17 17.64V63.2C103.16 63.6887 103.249 64.1743 103.431 64.6278C103.613 65.0814 103.885 65.4937 104.23 65.84C104.884 66.5016 105.77 66.8819 106.7 66.9H107.06C107.638 66.8929 108.206 66.7453 108.715 66.4701C109.223 66.1949 109.658 65.8002 109.98 65.32L127.51 39.23L144.87 65.23C145.246 65.7856 145.778 66.2172 146.4 66.47C146.967 66.7548 147.597 66.8899 148.231 66.8624C148.865 66.835 149.481 66.646 150.021 66.3133C150.561 65.9806 151.007 65.5153 151.317 64.9617C151.626 64.408 151.789 63.7844 151.79 63.15V63.2Z" fill="#010101"/>
<path d="M31.1101 73.88L36.4301 79.2C37.4914 80.2601 38.9301 80.8556 40.4301 80.8556C41.9301 80.8556 43.3688 80.2601 44.4301 79.2L49.7501 73.88L40.4601 59.95L31.1101 73.88Z" fill="#010101"/>
<path d="M14.5499 36.52C14.5405 35.9343 14.654 35.3531 14.8831 34.814C15.1122 34.2749 15.4518 33.7898 15.8799 33.39C16.7095 32.6003 17.8147 32.1661 18.9599 32.18C20.1273 32.1584 21.2572 32.5924 22.1099 33.39C22.5381 33.7898 22.8777 34.2749 23.1068 34.814C23.3359 35.3531 23.4494 35.9343 23.4399 36.52V66.21L25.1299 67.9L37.1499 49.74C37.5328 49.1759 38.0535 48.7191 38.6625 48.4128C39.2716 48.1065 39.9488 47.961 40.6299 47.99C41.2741 47.9908 41.9092 48.1411 42.4854 48.4292C43.0615 48.7172 43.5629 49.1352 43.95 49.65L44.0799 49.81L55.8699 67.81L57.7199 65.96V36.52C57.7105 35.9474 57.8163 35.3788 58.031 34.848C58.2458 34.3172 58.5651 33.835 58.97 33.4301C59.3749 33.0252 59.8571 32.7058 60.388 32.4911C60.9188 32.2763 61.4874 32.1705 62.0599 32.18C62.6375 32.1668 63.2114 32.2757 63.7439 32.4998C64.2764 32.7238 64.7556 33.0578 65.1499 33.48C65.9129 34.2913 66.3322 35.3664 66.3199 36.48V57.31L79.2099 44.43C80.27 43.3687 80.8655 41.93 80.8655 40.43C80.8655 38.93 80.27 37.4913 79.2099 36.43L44.4299 1.65C43.3674 0.592341 41.9292 -0.00143433 40.4299 -0.00143433C38.9307 -0.00143433 37.4925 0.592341 36.4299 1.65L1.65995 36.43C0.599851 37.4913 0.00439453 38.93 0.00439453 40.43C0.00439453 41.93 0.599851 43.3687 1.65995 44.43L14.5499 57.31V36.52Z" fill="#010101"/>
</svg>
